<?xml version="1.0" encoding="UTF-8"?>
<svg width="10px" height="10px" viewBox="0 0 10 10" version="1.1" xmlns="http://www.w3.org/2000/svg" xmlns:xlink="http://www.w3.org/1999/xlink">
    <!-- Generator: Sketch 54 (76480) - https://sketchapp.com -->
    <title>btn-open-link</title>
    <desc>Created with Sketch.</desc>
    <g id="Page-1" stroke="none" stroke-width="1" fill="none" fill-rule="evenodd">
        <g id="Mobile" transform="translate(-215.000000, -622.000000)" fill="#1B9AD7">
            <g id="btn-open-link" transform="translate(215.000000, 622.000000)">
                <path d="M8.88888889,8.88888889 L1.11111111,8.88888889 L1.11111111,1.11111111 L4.34166667,1.11111111 C4.79,1.11111111 5.01388889,0.569444444 4.69777778,0.252777778 L4.44444444,0 L1.11111111,0 C0.5,0 0,0.5 0,1.11111111 L0,8.88888889 C0,9.5 0.5,10 1.11111111,10 L8.88888889,10 C9.5,10 10,9.5 10,8.88888889 L10,5.55555556 L9.74722222,5.30277778 C9.43055556,4.98611111 8.88888889,5.21 8.88888889,5.65833333 L8.88888889,8.88888889 Z" id="Fill-1"></path>
                <path d="M10,0 L6.11111111,0 L7.62388889,1.51277778 L4.56777778,4.56833333 C4.32888889,4.80611111 4.32888889,5.19388889 4.56777778,5.43166667 C4.68722222,5.55111111 4.84333333,5.61111111 5,5.61111111 C5.15666667,5.61111111 5.31277778,5.55111111 5.43222222,5.43166667 L8.48722222,2.37611111 L10,3.88888889 L10,0 Z" id="Fill-3"></path>
            </g>
        </g>
    </g>
</svg>